# xmcd
#
# Track frame offsets: 
#        187
#        11567
#        26330
#        36135
#        45727
#        60512
#        74447
#        89310
#        103220
#        115257
#
# Disc length: 1746 seconds
#
# Revision: 2
# Processed by: cddbd v1.5PL3 Copyright (c) Steve Scherf et al.
# Submitted via: ExactAudioCopy v0.95a3
#
DISCID=7e06d00a
DTITLE=John Anderson - Christmas Time
DYEAR=1994
DGENRE=Country
TTITLE0=Christmas Time
TTITLE1=Blue Christmas
TTITLE2=Jingle Bell Rock
TTITLE3=Winter Wonderland
TTITLE4=The Christmas Song
TTITLE5=What Child Is This
TTITLE6=Silent Night
TTITLE7=Jesus Our Savior
TTITLE8=I'll Be Home For Christmas
TTITLE9=The Night Before Christmas
EXTD=
EXTT0=
EXTT1=
EXTT2=
EXTT3=
EXTT4=
EXTT5=
EXTT6=
EXTT7=
EXTT8=
EXTT9=
PLAYORDER=
